<svg width="64" height="70" viewBox="0 0 1.120000 1.217000" xmlns="http://www.w3.org/2000/svg"> <polygon points="0.17,0.599,1.07,0.599,1.07,0.585,0.17,0.585" fill="#F0F0F0" /><polygon points="0.17,0.014,1.07,0.014,1.07,0,0.17,0" fill="#F0F0F0" /><polygon points="0.17,1.184,1.07,1.184,1.07,1.17,0.17,1.17" fill="#F0F0F0" /><polygon points="0.33,0.862,1.07,0.862,1.07,0.848,0.33,0.848" fill="#F0F0F0" /><polygon points="1.12,1.184,1.12,0.848,1.02,0.848,1.02,1.184" fill="#6DD884" /><polygon points="0.12,0.599,0.12,0,0.22,0,0.22,0.599" fill="#F27A93" /><polygon points="0.12,1.184,0.12,0.585,0.22,0.585,0.22,1.184" fill="#F27A93" /><polygon points="0.07,1.177,0,1.137,0,1.217" fill="#F0F0F0" /> </svg>