<svg width="64" height="55" viewBox="0 0 1.120000 0.953900" xmlns="http://www.w3.org/2000/svg"> <polygon points="0.33,0.014,1.07,0.014,1.07,0,0.33,0" fill="#F0F0F0" /><polygon points="0.33,0.014,1.07,0.014,1.07,0,0.33,0" fill="#F0F0F0" /><polygon points="0.17,0.3359,1.07,0.3359,1.07,0.3219,0.17,0.3219" fill="#F0F0F0" /><polygon points="0.33,0.599,1.07,0.599,1.07,0.585,0.33,0.585" fill="#F0F0F0" /><polygon points="0.17,0.9209,1.07,0.9209,1.07,0.9069,0.17,0.9069" fill="#F0F0F0" /><polygon points="1.12,0.9209,1.12,0.585,1.02,0.585,1.02,0.9209" fill="#6DD884" /><polygon points="0.28,0.599,0.28,0,0.38,0,0.38,0.599" fill="#F27A93" /><polygon points="0.12,0.9209,0.12,0.3219,0.22,0.3219,0.22,0.9209" fill="#F27A93" /><polygon points="1.12,0.3359,1.12,0,1.02,0,1.02,0.3359" fill="#6DD884" /><polygon points="0.07,0.9139,0,0.8739,0,0.9539" fill="#F0F0F0" /> </svg>