<svg width="64" height="52" viewBox="0 0 1.120000 0.895000" xmlns="http://www.w3.org/2000/svg"> <polygon points="0.17,0.277,1.07,0.277,1.07,0.263,0.17,0.263" fill="#F0F0F0" /><polygon points="0.33,0.599,1.07,0.599,1.07,0.585,0.33,0.585" fill="#F0F0F0" /><polygon points="0.17,0.862,1.07,0.862,1.07,0.848,0.17,0.848" fill="#F0F0F0" /><polygon points="0.33,0.014,1.07,0.014,1.07,0,0.33,0" fill="#F0F0F0" /><polygon points="0.28,0.599,0.28,0,0.38,0,0.38,0.599" fill="#F27A93" /><polygon points="1.12,0.599,1.12,0.263,1.02,0.263,1.02,0.599" fill="#6DD884" /><polygon points="0.12,0.862,0.12,0.263,0.22,0.263,0.22,0.862" fill="#F27A93" /><polygon points="0.07,0.855,0,0.815,0,0.895" fill="#F0F0F0" /> </svg>