<svg width="64" height="102" viewBox="0 0 1.120000 1.769000" xmlns="http://www.w3.org/2000/svg"> <polygon points="0.3336,1.184,0.4155,1.184,0.4155,1.17,0.3336,1.17" fill="#F0F0F0" /><polygon points="0.17,1.184,0.2518,1.184,0.2518,1.17,0.17,1.17" fill="#F0F0F0" /><polygon points="0.17,1.769,1.07,1.769,1.07,1.755,0.17,1.755" fill="#F0F0F0" /><polygon points="0.4973,1.184,0.5791,1.184,0.5791,1.17,0.4973,1.17" fill="#F0F0F0" /><polygon points="0.6609,1.184,0.7427,1.184,0.7427,1.17,0.6609,1.17" fill="#F0F0F0" /><polygon points="0.9882,1.184,1.07,1.184,1.07,1.17,0.9882,1.17" fill="#F0F0F0" /><polygon points="0.8245,1.184,0.9064,1.184,0.9064,1.17,0.8245,1.17" fill="#F0F0F0" /><polygon points="0.33,0.277,1.07,0.277,1.07,0.263,0.33,0.263" fill="#F0F0F0" /><polygon points="0.17,0.599,1.07,0.599,1.07,0.585,0.17,0.585" fill="#F0F0F0" /><polygon points="0.17,0.014,1.07,0.014,1.07,0,0.17,0" fill="#F0F0F0" /><polygon points="0.12,1.184,0.12,0.585,0.22,0.585,0.22,1.184" fill="#F27A93" /><polygon points="0.12,1.769,0.12,1.17,0.22,1.17,0.22,1.769" fill="#F27A93" /><polygon points="0.12,0.599,0.12,0,0.22,0,0.22,0.599" fill="#F27A93" /><polygon points="1.12,0.599,1.12,0.263,1.02,0.263,1.02,0.599" fill="#6DD884" /><polygon points="0.07,0.592,0,0.552,0,0.632" fill="#F0F0F0" /> </svg>