<svg width="64" height="102" viewBox="0 0 1.120000 1.769000" xmlns="http://www.w3.org/2000/svg"> <polygon points="0.05,0.599,0.1318,0.599,0.1318,0.585,0.05,0.585" fill="#F0F0F0" /><polygon points="0.3773,1.184,0.4591,1.184,0.4591,1.17,0.3773,1.17" fill="#F0F0F0" /><polygon points="0.2136,1.184,0.2955,1.184,0.2955,1.17,0.2136,1.17" fill="#F0F0F0" /><polygon points="0.05,1.184,0.1318,1.184,0.1318,1.17,0.05,1.17" fill="#F0F0F0" /><polygon points="0.5409,1.184,0.6227,1.184,0.6227,1.17,0.5409,1.17" fill="#F0F0F0" /><polygon points="0.8682,1.184,0.95,1.184,0.95,1.17,0.8682,1.17" fill="#F0F0F0" /><polygon points="0.7045,1.184,0.7864,1.184,0.7864,1.17,0.7045,1.17" fill="#F0F0F0" /><polygon points="0.05,1.769,0.95,1.769,0.95,1.755,0.05,1.755" fill="#F0F0F0" /><polygon points="0.21,0.277,0.95,0.277,0.95,0.263,0.21,0.263" fill="#F0F0F0" /><polygon points="0.5409,0.599,0.6227,0.599,0.6227,0.585,0.5409,0.585" fill="#F0F0F0" /><polygon points="0.7045,0.599,0.7864,0.599,0.7864,0.585,0.7045,0.585" fill="#F0F0F0" /><polygon points="0.2136,0.599,0.2955,0.599,0.2955,0.585,0.2136,0.585" fill="#F0F0F0" /><polygon points="0.8682,0.599,0.95,0.599,0.95,0.585,0.8682,0.585" fill="#F0F0F0" /><polygon points="0.3773,0.599,0.4591,0.599,0.4591,0.585,0.3773,0.585" fill="#F0F0F0" /><polygon points="0.05,0.014,0.95,0.014,0.95,0,0.05,0" fill="#F0F0F0" /><polygon points="0,1.184,0,0.585,0.1,0.585,0.1,1.184" fill="#F27A93" /><polygon points="0,0.599,0,0,0.1,0,0.1,0.599" fill="#F27A93" /><polygon points="1,0.599,1,0.263,0.9,0.263,0.9,0.599" fill="#6DD884" /><polygon points="0,1.769,0,1.17,0.1,1.17,0.1,1.769" fill="#F27A93" /><polygon points="1.05,0.27,1.12,0.23,1.12,0.31" fill="#F0F0F0" /> </svg>