<svg width="128" height="120" viewBox="0 0 1.200000 1.121000" xmlns="http://www.w3.org/2000/svg"> <rect width="100%" height="100%" fill="#524E61" /> <polygon points="0.15,1.021,1.05,1.021,1.05,1.007,0.15,1.007" fill="#F0F0F0" /><polygon points="0.31,0.114,1.05,0.114,1.05,0.1,0.31,0.1" fill="#F0F0F0" /><polygon points="0.31,0.114,1.05,0.114,1.05,0.1,0.31,0.1" fill="#F0F0F0" /><polygon points="0.31,0.699,1.05,0.699,1.05,0.685,0.31,0.685" fill="#F0F0F0" /><polygon points="0.15,0.4359,1.05,0.4359,1.05,0.4219,0.15,0.4219" fill="#F0F0F0" /><polygon points="1.1,1.021,1.1,0.685,1,0.685,1,1.021" fill="#6DD884" /><polygon points="1.1,0.4359,1.1,0.1,1,0.1,1,0.4359" fill="#6DD884" /><polygon points="0.1,1.021,0.1,0.4219,0.2,0.4219,0.2,1.021" fill="#F27A93" /><polygon points="0.26,0.699,0.26,0.1,0.36,0.1,0.36,0.699" fill="#F27A93" /> </svg>