<svg width="128" height="117" viewBox="0 0 1.200000 1.095000" xmlns="http://www.w3.org/2000/svg"> <rect width="100%" height="100%" fill="#524E61" /> <polygon points="0.15,0.699,1.05,0.699,1.05,0.685,0.15,0.685" fill="#F0F0F0" /><polygon points="0.8045,0.114,0.8864,0.114,0.8864,0.1,0.8045,0.1" fill="#F0F0F0" /><polygon points="0.31,0.962,1.05,0.962,1.05,0.948,0.31,0.948" fill="#F0F0F0" /><polygon points="0.31,0.377,1.05,0.377,1.05,0.363,0.31,0.363" fill="#F0F0F0" /><polygon points="0.6409,0.114,0.7227,0.114,0.7227,0.1,0.6409,0.1" fill="#F0F0F0" /><polygon points="0.9682,0.114,1.05,0.114,1.05,0.1,0.9682,0.1" fill="#F0F0F0" /><polygon points="0.3136,0.114,0.3955,0.114,0.3955,0.1,0.3136,0.1" fill="#F0F0F0" /><polygon points="0.4773,0.114,0.5591,0.114,0.5591,0.1,0.4773,0.1" fill="#F0F0F0" /><polygon points="0.15,0.114,0.2318,0.114,0.2318,0.1,0.15,0.1" fill="#F0F0F0" /><polygon points="1.1,0.699,1.1,0.363,1,0.363,1,0.699" fill="#6DD884" /><polygon points="0.26,0.962,0.26,0.363,0.36,0.363,0.36,0.962" fill="#F27A93" /><polygon points="0.1,0.699,0.1,0.1,0.2,0.1,0.2,0.699" fill="#F27A93" /><polygon points="0.21,0.955,0.14,0.915,0.14,0.995" fill="#F0F0F0" /> </svg>