<svg width="128" height="120" viewBox="0 0 1.200000 1.121000" xmlns="http://www.w3.org/2000/svg"> <rect width="100%" height="100%" fill="#524E61" /> <polygon points="0.15,1.021,1.05,1.021,1.05,1.007,0.15,1.007" fill="#F0F0F0" /><polygon points="0.31,0.5994,1.05,0.5994,1.05,0.5854,0.31,0.5854" fill="#F0F0F0" /><polygon points="0.15,0.114,1.05,0.114,1.05,0.1,0.15,0.1" fill="#F0F0F0" /><polygon points="0.31,0.9214,1.05,0.9214,1.05,0.9074,0.31,0.9074" fill="#F0F0F0" /><polygon points="0.8045,0.4359,0.8864,0.4359,0.8864,0.4219,0.8045,0.4219" fill="#F0F0F0" /><polygon points="0.9682,0.4359,1.05,0.4359,1.05,0.4219,0.9682,0.4219" fill="#F0F0F0" /><polygon points="0.4773,0.4359,0.5591,0.4359,0.5591,0.4219,0.4773,0.4219" fill="#F0F0F0" /><polygon points="0.3136,0.4359,0.3955,0.4359,0.3955,0.4219,0.3136,0.4219" fill="#F0F0F0" /><polygon points="0.15,0.4359,0.2318,0.4359,0.2318,0.4219,0.15,0.4219" fill="#F0F0F0" /><polygon points="0.6409,0.4359,0.7227,0.4359,0.7227,0.4219,0.6409,0.4219" fill="#F0F0F0" /><polygon points="1.1,0.4359,1.1,0.1,1,0.1,1,0.4359" fill="#6DD884" /><polygon points="1.1,0.9214,1.1,0.5854,1,0.5854,1,0.9214" fill="#6DD884" /><polygon points="0.1,1.021,0.1,0.4219,0.2,0.4219,0.2,1.021" fill="#F27A93" /><polygon points="0.26,0.9214,0.386,0.9214,1.1,0.1,0.974,0.1" fill="#B498EE" /> </svg>