<svg width="128" height="172" viewBox="0 0 1.720000 2.301000" xmlns="http://www.w3.org/2000/svg"> <rect width="100%" height="100%" fill="#524E61" /> <polygon points="0.41,2.201,1.31,2.201,1.31,2.187,0.41,2.187" fill="#F0F0F0" /><polygon points="0.41,1.979,1.31,1.979,1.31,1.965,0.41,1.965" fill="#F0F0F0" /><polygon points="0.41,0.114,1.31,0.114,1.31,0.1,0.41,0.1" fill="#F0F0F0" /><polygon points="0.41,0.742,1.31,0.742,1.31,0.728,0.41,0.728" fill="#F0F0F0" /><polygon points="0.41,0.501,1.31,0.501,1.31,0.487,0.41,0.487" fill="#F0F0F0" /><polygon points="0.41,1.394,1.31,1.394,1.31,1.38,0.41,1.38" fill="#F0F0F0" /><polygon points="0.41,1.064,1.31,1.064,1.31,1.05,0.41,1.05" fill="#F0F0F0" /><polygon points="0.41,0.2015,1.31,0.2015,1.31,0.1875,0.41,0.1875" fill="#F0F0F0" /><polygon points="0.71,1.201,1.01,1.201,1.01,1.187,0.71,1.187" fill="#808080" /><polygon points="0.86,1.194,0.94,1.294,0.88,1.294,0.88,2.194,0.84,2.194,0.84,1.294,0.78,1.294" fill="#808080" /><polygon points="0.86,0.1945,0.94,0.2945,0.88,0.2945,0.88,1.194,0.84,1.194,0.84,0.2945,0.78,0.2945" fill="#808080" /><polygon points="1.36,1.064,1.36,0.728,1.26,0.728,1.26,1.064" fill="#6DD884" /><polygon points="0.36,1.979,0.36,1.38,0.46,1.38,0.46,1.979" fill="#F27A93" /><polygon points="0.36,2.201,0.486,2.201,1.36,1.38,1.234,1.38" fill="#B498EE" /><polygon points="1.36,2.201,1.25,2.201,0.36,0.728,0.47,0.728" fill="#FFC247" /><path d="M 0.36 2.201 Q 0.1 1.344 0.36 0.487 L 0.46 0.487 Q 0.2 1.344 0.46 2.201 Z" fill="#B5B539" /><path d="M 1.36 2.201 Q 1.62 1.151 1.36 0.1 L 1.26 0.1 Q 1.52 1.151 1.26 2.201 Z" fill="#E19C7D" /> </svg>