<svg width="64" height="69" viewBox="0 0 1.320000 1.417000" xmlns="http://www.w3.org/2000/svg"> <rect width="100%" height="100%" fill="#524E61" /> <polygon points="0.27,0.699,1.17,0.699,1.17,0.685,0.27,0.685" fill="#F0F0F0" /><polygon points="0.27,0.114,1.17,0.114,1.17,0.1,0.27,0.1" fill="#F0F0F0" /><polygon points="0.27,1.284,1.17,1.284,1.17,1.27,0.27,1.27" fill="#F0F0F0" /><polygon points="0.43,0.962,1.17,0.962,1.17,0.948,0.43,0.948" fill="#F0F0F0" /><polygon points="1.22,1.284,1.22,0.948,1.12,0.948,1.12,1.284" fill="#6DD884" /><polygon points="0.22,0.699,0.22,0.1,0.32,0.1,0.32,0.699" fill="#F27A93" /><polygon points="0.22,1.284,0.22,0.685,0.32,0.685,0.32,1.284" fill="#F27A93" /><polygon points="0.17,1.277,0.1,1.237,0.1,1.317" fill="#F0F0F0" /> </svg>