<svg width="64" height="56" viewBox="0 0 1.320000 1.154000" xmlns="http://www.w3.org/2000/svg"> <rect width="100%" height="100%" fill="#524E61" /> <polygon points="0.43,0.114,1.17,0.114,1.17,0.1,0.43,0.1" fill="#F0F0F0" /><polygon points="0.43,0.114,1.17,0.114,1.17,0.1,0.43,0.1" fill="#F0F0F0" /><polygon points="0.27,0.4359,1.17,0.4359,1.17,0.4219,0.27,0.4219" fill="#F0F0F0" /><polygon points="0.43,0.699,1.17,0.699,1.17,0.685,0.43,0.685" fill="#F0F0F0" /><polygon points="0.27,1.021,1.17,1.021,1.17,1.007,0.27,1.007" fill="#F0F0F0" /><polygon points="1.22,1.021,1.22,0.685,1.12,0.685,1.12,1.021" fill="#6DD884" /><polygon points="0.38,0.699,0.38,0.1,0.48,0.1,0.48,0.699" fill="#F27A93" /><polygon points="0.22,1.021,0.22,0.4219,0.32,0.4219,0.32,1.021" fill="#F27A93" /><polygon points="1.22,0.4359,1.22,0.1,1.12,0.1,1.12,0.4359" fill="#6DD884" /><polygon points="0.17,1.014,0.1,0.9739,0.1,1.054" fill="#F0F0F0" /> </svg>