<svg width="64" height="96" viewBox="0 0 1.320000 1.969000" xmlns="http://www.w3.org/2000/svg"> <rect width="100%" height="100%" fill="#524E61" /> <polygon points="0.4336,1.284,0.5155,1.284,0.5155,1.27,0.4336,1.27" fill="#F0F0F0" /><polygon points="0.27,1.284,0.3518,1.284,0.3518,1.27,0.27,1.27" fill="#F0F0F0" /><polygon points="0.27,1.869,1.17,1.869,1.17,1.855,0.27,1.855" fill="#F0F0F0" /><polygon points="0.5973,1.284,0.6791,1.284,0.6791,1.27,0.5973,1.27" fill="#F0F0F0" /><polygon points="0.7609,1.284,0.8427,1.284,0.8427,1.27,0.7609,1.27" fill="#F0F0F0" /><polygon points="1.088,1.284,1.17,1.284,1.17,1.27,1.088,1.27" fill="#F0F0F0" /><polygon points="0.9245,1.284,1.006,1.284,1.006,1.27,0.9245,1.27" fill="#F0F0F0" /><polygon points="0.43,0.377,1.17,0.377,1.17,0.363,0.43,0.363" fill="#F0F0F0" /><polygon points="0.27,0.699,1.17,0.699,1.17,0.685,0.27,0.685" fill="#F0F0F0" /><polygon points="0.27,0.114,1.17,0.114,1.17,0.1,0.27,0.1" fill="#F0F0F0" /><polygon points="0.22,1.284,0.22,0.685,0.32,0.685,0.32,1.284" fill="#F27A93" /><polygon points="0.22,1.869,0.22,1.27,0.32,1.27,0.32,1.869" fill="#F27A93" /><polygon points="0.22,0.699,0.22,0.1,0.32,0.1,0.32,0.699" fill="#F27A93" /><polygon points="1.22,0.699,1.22,0.363,1.12,0.363,1.12,0.699" fill="#6DD884" /><polygon points="0.17,0.692,0.1,0.652,0.1,0.732" fill="#F0F0F0" /> </svg>