<svg width="64" height="96" viewBox="0 0 1.320000 1.969000" xmlns="http://www.w3.org/2000/svg"> <rect width="100%" height="100%" fill="#524E61" /> <polygon points="0.15,0.699,0.2318,0.699,0.2318,0.685,0.15,0.685" fill="#F0F0F0" /><polygon points="0.4773,1.284,0.5591,1.284,0.5591,1.27,0.4773,1.27" fill="#F0F0F0" /><polygon points="0.3136,1.284,0.3955,1.284,0.3955,1.27,0.3136,1.27" fill="#F0F0F0" /><polygon points="0.15,1.284,0.2318,1.284,0.2318,1.27,0.15,1.27" fill="#F0F0F0" /><polygon points="0.6409,1.284,0.7227,1.284,0.7227,1.27,0.6409,1.27" fill="#F0F0F0" /><polygon points="0.9682,1.284,1.05,1.284,1.05,1.27,0.9682,1.27" fill="#F0F0F0" /><polygon points="0.8045,1.284,0.8864,1.284,0.8864,1.27,0.8045,1.27" fill="#F0F0F0" /><polygon points="0.15,1.869,1.05,1.869,1.05,1.855,0.15,1.855" fill="#F0F0F0" /><polygon points="0.31,0.377,1.05,0.377,1.05,0.363,0.31,0.363" fill="#F0F0F0" /><polygon points="0.6409,0.699,0.7227,0.699,0.7227,0.685,0.6409,0.685" fill="#F0F0F0" /><polygon points="0.8045,0.699,0.8864,0.699,0.8864,0.685,0.8045,0.685" fill="#F0F0F0" /><polygon points="0.3136,0.699,0.3955,0.699,0.3955,0.685,0.3136,0.685" fill="#F0F0F0" /><polygon points="0.9682,0.699,1.05,0.699,1.05,0.685,0.9682,0.685" fill="#F0F0F0" /><polygon points="0.4773,0.699,0.5591,0.699,0.5591,0.685,0.4773,0.685" fill="#F0F0F0" /><polygon points="0.15,0.114,1.05,0.114,1.05,0.1,0.15,0.1" fill="#F0F0F0" /><polygon points="0.1,1.284,0.1,0.685,0.2,0.685,0.2,1.284" fill="#F27A93" /><polygon points="0.1,0.699,0.1,0.1,0.2,0.1,0.2,0.699" fill="#F27A93" /><polygon points="1.1,0.699,1.1,0.363,1,0.363,1,0.699" fill="#6DD884" /><polygon points="0.1,1.869,0.1,1.27,0.2,1.27,0.2,1.869" fill="#F27A93" /><polygon points="1.15,0.37,1.22,0.33,1.22,0.41" fill="#F0F0F0" /> </svg>