<svg width="278" height="256" viewBox="0 0 1.000000 0.920900" xmlns="http://www.w3.org/2000/svg"> <polygon points="0.05,0.9209,0.95,0.9209,0.95,0.9069,0.05,0.9069" fill="#F0F0F0" /><polygon points="0.21,0.014,0.95,0.014,0.95,0,0.21,0" fill="#F0F0F0" /><polygon points="0.21,0.014,0.95,0.014,0.95,0,0.21,0" fill="#F0F0F0" /><polygon points="0.21,0.599,0.95,0.599,0.95,0.585,0.21,0.585" fill="#F0F0F0" /><polygon points="0.05,0.3359,0.95,0.3359,0.95,0.3219,0.05,0.3219" fill="#F0F0F0" /><polygon points="1,0.9209,1,0.585,0.9,0.585,0.9,0.9209" fill="#6DD884" /><polygon points="1,0.3359,1,0,0.9,0,0.9,0.3359" fill="#6DD884" /><polygon points="0,0.9209,0,0.3219,0.1,0.3219,0.1,0.9209" fill="#F27A93" /><polygon points="0.16,0.599,0.16,0,0.26,0,0.26,0.599" fill="#F27A93" /> </svg>