<svg width="287" height="256" viewBox="0 0 1.000000 0.895000" xmlns="http://www.w3.org/2000/svg"> <polygon points="0.05,0.599,0.95,0.599,0.95,0.585,0.05,0.585" fill="#F0F0F0" /><polygon points="0.7045,0.014,0.7864,0.014,0.7864,0,0.7045,0" fill="#F0F0F0" /><polygon points="0.21,0.862,0.95,0.862,0.95,0.848,0.21,0.848" fill="#F0F0F0" /><polygon points="0.21,0.277,0.95,0.277,0.95,0.263,0.21,0.263" fill="#F0F0F0" /><polygon points="0.5409,0.014,0.6227,0.014,0.6227,0,0.5409,0" fill="#F0F0F0" /><polygon points="0.8682,0.014,0.95,0.014,0.95,0,0.8682,0" fill="#F0F0F0" /><polygon points="0.2136,0.014,0.2955,0.014,0.2955,0,0.2136,0" fill="#F0F0F0" /><polygon points="0.3773,0.014,0.4591,0.014,0.4591,0,0.3773,0" fill="#F0F0F0" /><polygon points="0.05,0.014,0.1318,0.014,0.1318,0,0.05,0" fill="#F0F0F0" /><polygon points="1,0.599,1,0.263,0.9,0.263,0.9,0.599" fill="#6DD884" /><polygon points="0.16,0.862,0.16,0.263,0.26,0.263,0.26,0.862" fill="#F27A93" /><polygon points="0,0.599,0,0,0.1,0,0.1,0.599" fill="#F27A93" /><polygon points="0.11,0.855,0.04,0.815,0.04,0.895" fill="#F0F0F0" /> </svg>