<svg width="256" height="354" viewBox="0 0 1.520000 2.101000" xmlns="http://www.w3.org/2000/svg"> <polygon points="0.31,2.101,1.21,2.101,1.21,2.087,0.31,2.087" fill="#F0F0F0" /><polygon points="0.31,0.014,1.21,0.014,1.21,0,0.31,0" fill="#F0F0F0" /><polygon points="0.31,0.642,1.21,0.642,1.21,0.628,0.31,0.628" fill="#F0F0F0" /><polygon points="0.31,0.401,1.21,0.401,1.21,0.387,0.31,0.387" fill="#F0F0F0" /><polygon points="0.31,1.78,1.21,1.78,1.21,1.766,0.31,1.766" fill="#F0F0F0" /><polygon points="0.31,1.294,1.21,1.294,1.21,1.28,0.31,1.28" fill="#F0F0F0" /><polygon points="0.31,1.101,1.21,1.101,1.21,1.087,0.31,1.087" fill="#F0F0F0" /><polygon points="0.31,1.517,1.21,1.517,1.21,1.503,0.31,1.503" fill="#F0F0F0" /><polygon points="0.76,1.094,0.84,1.194,0.78,1.194,0.78,2.094,0.74,2.094,0.74,1.194,0.68,1.194" fill="#808080" /><polygon points="1.26,2.101,1.26,1.766,1.16,1.766,1.16,2.101" fill="#6DD884" /><polygon points="0.26,2.101,0.26,1.503,0.36,1.503,0.36,2.101" fill="#F27A93" /><polygon points="1.26,2.101,1.15,2.101,0.26,0.628,0.37,0.628" fill="#FFC247" /><polygon points="0.26,2.101,0.386,2.101,1.26,1.28,1.134,1.28" fill="#B498EE" /><path d="M 0.26 2.101 Q 0 1.244 0.26 0.387 L 0.36 0.387 Q 0.1 1.244 0.36 2.101 Z" fill="#B5B539" /><path d="M 1.26 2.101 Q 1.52 1.051 1.26 0 L 1.16 0 Q 1.42 1.051 1.16 2.101 Z" fill="#E19C7D" /> </svg>