<svg width="256.0" height="413.82652873853" viewBox="0 0 1.3 2.1014628412503" xmlns="http://www.w3.org/2000/svg">'<polygon points="0.2,2.101,1.1,2.101,1.1,2.087,0.2,2.087" fill="#F0F0F0" />''<polygon points="0.2,0.014,1.1,0.014,1.1,0,0.2,0" fill="#F0F0F0" />''<polygon points="0.2,0.642,1.1,0.642,1.1,0.628,0.2,0.628" fill="#F0F0F0" />''<polygon points="0.2,0.401,1.1,0.401,1.1,0.387,0.2,0.387" fill="#F0F0F0" />''<polygon points="0.2,1.78,1.1,1.78,1.1,1.766,0.2,1.766" fill="#F0F0F0" />''<polygon points="0.2,1.294,1.1,1.294,1.1,1.28,0.2,1.28" fill="#F0F0F0" />''<polygon points="0.2,1.101,1.1,1.101,1.1,1.087,0.2,1.087" fill="#F0F0F0" />''<polygon points="0.2,1.517,1.1,1.517,1.1,1.503,0.2,1.503" fill="#F0F0F0" />''<polygon points="0.65,1.094,0.73,1.194,0.67,1.194,0.67,2.094,0.63,2.094,0.63,1.194,0.57,1.194" fill="#808080" />''<polygon points="1.15,2.101,1.05,2.101,1.05,1.766,1.15,1.766" fill="#6DD884" />''<polygon points="0.15,2.101,0.25,2.101,0.25,1.503,0.15,1.503" fill="#F27A93" />''<polygon points="1.15,2.101,1.04,2.101,0.15,0.628,0.26,0.628" fill="#FFC247" />''<polygon points="0.15,2.101,0.276,2.101,1.15,1.28,1.024,1.28" fill="#B498EE" />''<polygon points="0.25,2.101,0.14,1.754,0.1,1.244,0.14,0.7341,0.25,0.387,0.15,0.387,0.04,0.7341,0,1.244,0.04,1.754,0.15,2.101" fill="#B5B539" />''<polygon points="1.05,2.101,1.16,1.677,1.2,1.051,1.16,0.4245,1.05,0,1.15,0,1.26,0.4245,1.3,1.051,1.26,1.677,1.15,2.101" fill="#E19C7D" />'</svg>