<svg width="277.9917627792" height="256.0" viewBox="0 0 1 0.92089059560852" xmlns="http://www.w3.org/2000/svg">'<polygon points="0.05,0.9209,0.95,0.9209,0.95,0.9069,0.05,0.9069" fill="#F0F0F0" />''<polygon points="0.21,0.4994,0.95,0.4994,0.95,0.4854,0.21,0.4854" fill="#F0F0F0" />''<polygon points="0.05,0.014,0.95,0.014,0.95,1.11e-16,0.05,1.11e-16" fill="#F0F0F0" />''<polygon points="0.21,0.8214,0.95,0.8214,0.95,0.8074,0.21,0.8074" fill="#F0F0F0" />''<polygon points="0.7045,0.3359,0.7864,0.3359,0.7864,0.3219,0.7045,0.3219" fill="#F0F0F0" />''<polygon points="0.8682,0.3359,0.95,0.3359,0.95,0.3219,0.8682,0.3219" fill="#F0F0F0" />''<polygon points="0.3773,0.3359,0.4591,0.3359,0.4591,0.3219,0.3773,0.3219" fill="#F0F0F0" />''<polygon points="0.2136,0.3359,0.2955,0.3359,0.2955,0.3219,0.2136,0.3219" fill="#F0F0F0" />''<polygon points="0.05,0.3359,0.1318,0.3359,0.1318,0.3219,0.05,0.3219" fill="#F0F0F0" />''<polygon points="0.5409,0.3359,0.6227,0.3359,0.6227,0.3219,0.5409,0.3219" fill="#F0F0F0" />''<polygon points="1,0.3359,0.9,0.3359,0.9,1.11e-16,1,1.11e-16" fill="#6DD884" />''<polygon points="1,0.8214,0.9,0.8214,0.9,0.4854,1,0.4854" fill="#6DD884" />''<polygon points="0,0.9209,0.1,0.9209,0.1,0.3219,0,0.3219" fill="#F27A93" />''<polygon points="0.16,0.8214,0.286,0.8214,1,0,0.874,0" fill="#B498EE" />'</svg>